# xmcd CD database file
#
# Track frame offsets:
#	150
#	14128
#	32825
#	50033
#	65005
#	79188
#	91700
#	104120
#	110978
#	137408
#	147998
#	166838
#	174548
#	185125
#	190163
#	197908
#	202713
#	217393
#	230638
#	242853
#
# Disc length: 3380 seconds
#
# Revision: 0
# Processed by: cddbd v1.5.2PL0 Copyright (c) Steve Scherf et al.
# Submitted via: CDex 1.70beta2
#
DISCID=390d3214
DTITLE=Saxophoniker - Just for Fun
DYEAR=1993
DGENRE=Jazz
TTITLE0=An American in Paris (Theme)
TTITLE1=Concertino
TTITLE2=Ronde des Princesses (I. Strawinsky)
TTITLE3=Bourrée from Suite No. 1  (J.S.Bach)
TTITLE4=Air aus der Ouvertüre Nr. 3 (J.S.Bach)
TTITLE5=Chorus of the Villagers from Prince Igor
TTITLE6=Vignette
TTITLE7=The Little Negro
TTITLE8=Tin Pan Alley
TTITLE9=The Pink Panther (Mancini)
TTITLE10=St. Louis Blues
TTITLE11=In Autums
TTITLE12=Chanson de la Grand Maman
TTITLE13=Bransle Gentil
TTITLE14=Pavane for the Earl of Salisbury
TTITLE15=Les Plaisirs
TTITLE16=Marche des Petits Soldats de Plomb
TTITLE17=El Capéo
TTITLE18=Entry of the Gladiators (Thunder and Blazes)
TTITLE19=When I'm sixty-four
EXTD=YEAR: 1993
EXTT0=
EXTT1=
EXTT2=
EXTT3=
EXTT4=
EXTT5=
EXTT6=
EXTT7=
EXTT8=
EXTT9=
EXTT10=
EXTT11=
EXTT12=
EXTT13=
EXTT14=
EXTT15=
EXTT16=
EXTT17=
EXTT18=
EXTT19=
PLAYORDER=
